<?xml version="1.0" encoding="UTF-8" standalone="no"?>
<svg
   xmlns:dc="http://purl.org/dc/elements/1.1/"
   xmlns:cc="http://creativecommons.org/ns#"
   xmlns:rdf="http://www.w3.org/1999/02/22-rdf-syntax-ns#"
   xmlns:svg="http://www.w3.org/2000/svg"
   xmlns="http://www.w3.org/2000/svg"
   xmlns:sodipodi="http://sodipodi.sourceforge.net/DTD/sodipodi-0.dtd"
   xmlns:inkscape="http://www.inkscape.org/namespaces/inkscape"
   version="1.1"
   width="482"
   height="600"
   id="svg2"
   inkscape:version="0.91 r13725"
   viewBox="0 0 482 600"
   sodipodi:docname="Logo Rodez AF.svg">
  <metadata
     id="metadata73">
    <rdf:RDF>
      <cc:Work
         rdf:about="">
        <dc:format>image/svg+xml</dc:format>
        <dc:type
           rdf:resource="http://purl.org/dc/dcmitype/StillImage" />
        <dc:title></dc:title>
      </cc:Work>
    </rdf:RDF>
  </metadata>
  <defs
     id="defs71" />
  <sodipodi:namedview
     pagecolor="#ffffff"
     bordercolor="#666666"
     borderopacity="1"
     objecttolerance="10"
     gridtolerance="10"
     guidetolerance="10"
     inkscape:pageopacity="0"
     inkscape:pageshadow="2"
     inkscape:window-width="1280"
     inkscape:window-height="691"
     id="namedview69"
     showgrid="false"
     inkscape:zoom="0.61867883"
     inkscape:cx="-25.631722"
     inkscape:cy="420.94489"
     inkscape:window-x="0"
     inkscape:window-y="1"
     inkscape:window-maximized="1"
     inkscape:current-layer="svg2" />
  <g
     id="Layer1000"
     transform="matrix(1.0583329,0,0,1.0583329,-74.248207,-145.49954)">
    <path
       d="m 89.1792,185.9956 c 43.0364,-32.0551 139.9175,-48.4406 209.4006,-48.5154 69.4831,-0.0748 165.4879,16.5704 207.4892,48.8042 20.9933,62.2333 22.0261,130.3528 15.5145,194.5004 -1.9588,19.2989 -4.3992,38.6356 -7.7945,57.7834 -7.823,44.1235 -20.7691,88.8864 -43.3498,127.7875 C 435.0383,627.3418 379.0527,677.9274 297.6154,704.4093 233.861,684.2443 176.116,642.8115 137.8144,587.1085 119.1088,559.9048 104.761,529.2965 94.9621,496.1003 87.4844,470.767 82.4821,444.6826 78.4089,418.5799 71.7601,375.9701 68.1659,330.358 71.3053,282.3134 c 2.1065,-32.241 7.1016,-64.8269 17.8739,-96.3178 z"
       style="fill:#c0132a;fill-rule:evenodd"
       id="path5"
       inkscape:connector-curvature="0" />
    <path
       d="m 297.677,137.4845 c 0.3001,-8e-4 0.6036,-0.004 0.9028,-0.004 69.4831,-0.0747 165.4878,16.5704 207.4891,48.8041 20.9933,62.2333 22.0262,130.3528 15.5147,194.5004 -1.959,19.2989 -4.3993,38.6357 -7.7947,57.7836 -7.8228,44.1234 -20.769,88.8864 -43.3496,127.7874 -35.3921,60.9706 -91.3584,111.5458 -172.7623,138.0331 l 0,-566.9043 z"
       style="fill:#b8142b;fill-rule:evenodd"
       id="path7"
       inkscape:connector-curvature="0" />
    <path
       d="m 102.632,205.1541 c 40.3488,-30.0266 131.1796,-45.6285 196.3234,-45.6985 65.1437,-0.0701 156.273,17.4537 194.5312,45.9691 19.4022,60.8134 20.6505,122.104 14.5456,182.1924 -3.1342,30.8523 -7.5836,61.8077 -15.5539,91.8123 -8.084,30.4333 -19.1885,58.4094 -32.9034,82.0156 -33.1903,57.127 -85.1723,104.5116 -161.5237,129.3177 -61.733,-18.889 -113.9117,-57.7 -149.8213,-109.8781 -17.5373,-25.4822 -30.9892,-54.1536 -40.1761,-85.2492 -7.0107,-23.7301 -11.7006,-48.164 -15.5194,-72.6149 -6.2336,-39.9134 -9.6033,-82.6392 -6.66,-127.6435 1.975,-30.2008 6.6581,-60.7247 16.7576,-90.2229 z m 122.6444,343.0439 19.3105,-2.6568 0,-9.3187 6.123,0 0,9.2276 18.6677,2.7479 0,57.223 -21.8033,-12.3442 -17.0536,9.6422 1.5978,2.8262 15.4547,-8.7381 21.8044,12.3447 0,64.2415 c 1.7824,0.7708 3.5737,1.5254 5.3763,2.2594 l 0,-83.847 4.6447,-22.9212 3.4197,22.3802 15.3541,-32.1085 15.1116,32.1085 3.4503,-22.3799 4.6142,20.7566 0,85.3874 c 1.9108,-0.7943 3.8025,-1.6025 5.675,-2.4252 l 0,-73.9563 23.1479,-13.7113 23.4466,13.7113 0,48.0867 c 34.1784,-23.5968 59.8674,-53.2395 79.2736,-86.666 19.7459,-34.0123 33.2919,-77.7783 40.381,-124.5036 10.9733,-72.3235 14.8246,-146.0545 -8.7698,-216.1279 -36.5789,-27.2835 -123.7081,-44.0622 -185.9925,-43.9952 -62.2844,0.0671 -149.1284,15.2656 -187.7061,43.9952 -9.6561,28.2242 -14.1337,57.1594 -16.0221,86.0554 -2.8137,43.0607 0.4077,83.9411 6.3679,122.1303 3.651,23.395 8.135,46.7734 14.8381,69.4788 8.7835,29.7522 21.6451,57.1854 38.4127,81.567 19.1547,27.8528 43.1522,51.7228 70.8756,70.5233 l 0,-100.9933 z"
       style="fill:#f8b800;fill-rule:evenodd"
       id="path9"
       inkscape:connector-curvature="0" />
    <path
       d="m 275.466,328.7665 -42.8708,13.2622 -4.5506,10.14 -55.8245,21.2812 3.4684,36.9296 14.577,5.0538 -9.0633,11.0654 10.1022,10.9517 31.5349,-6.5959 46.0308,34.3485 28.7644,56.0572 60.9487,15.037 4.2422,-26.2971 27.7959,-3.739 29.4192,-34.3485 -26.178,-24.7496 -1.5043,-9.9453 4.0095,-7.5969 -27.7959,-17.8886 -8.4843,-62.9182 -22.6285,-21.5139 -10.1022,-38.3959 -29.3381,-17.196 -22.5527,57.0583 z"
       style="fill:#f8b800;fill-rule:evenodd"
       id="path11"
       inkscape:connector-curvature="0" />
    <g
       id="Layer1001">
      <path
         d="m 373.3721,549.3256 c 0,2.3838 -0.0598,3.9698 -0.3114,4.7546 -0.2594,0.8084 -1.0102,1.2021 -2.1438,1.4769 l -0.961,0.2332 c -0.1106,0.1946 -0.138,0.5698 -0.1247,1.1142 0.0141,0.5827 0.0831,0.9328 0.2421,1.0884 1.2519,-0.1556 2.7791,-0.4908 5.1236,-0.4908 1.895,0 3.4292,0.3352 5.1442,0.4908 0.2281,-0.1556 0.3661,-0.5051 0.3804,-1.0884 0.0133,-0.5438 -0.0831,-0.9196 -0.263,-1.1142 l -1.2723,-0.2332 c -0.9727,-0.1783 -1.5687,-0.6763 -1.8119,-1.4769 -0.2405,-0.7927 -0.332,-2.3705 -0.332,-4.7546 l 0,-15.8835 c 0,-2.436 0.088,-4.3119 0.332,-5.103 0.2389,-0.7754 1.1295,-1.1482 2.0824,-1.3993 l 0.8852,-0.2332 c 0.1591,-0.2979 0.2557,-0.7129 0.2419,-1.2307 -0.013,-0.4927 -0.1521,-0.8162 -0.3596,-0.9715 -1.0234,0.1553 -2.697,0.6598 -5.0273,0.6598 -2.0953,0 -3.7551,-0.5045 -4.9861,-0.6598 -0.1729,0.1553 -0.2424,0.4796 -0.2557,0.9715 -0.0138,0.5186 0.0206,0.9328 0.1383,1.2307 l 0.6706,0.1556 c 1.0817,0.2505 2.0965,0.6111 2.3316,1.3992 0.2484,0.8317 0.2765,2.7453 0.2765,5.1807 l 0,15.8835 z"
         style="fill:#f7b200;fill-rule:evenodd"
         id="path14"
         inkscape:connector-curvature="0" />
      <path
         d="m 392.8174,523.855 c -2.1996,0 -4.5991,1.5067 -6.0941,4.2647 -1.5072,2.7809 -2.4501,6.2902 -2.5093,10.5824 -0.0501,3.6415 0.6777,7.4046 1.5762,9.6818 1.0484,2.6578 3.0077,4.3869 4.6896,4.4115 1.7827,0.026 3.5128,-1.7077 4.2419,-3.1935 0.1607,-0.3274 0.1388,-1.8985 -0.2351,-2.2596 -0.4323,0.4161 -1.2902,1.0897 -2.4011,1.0813 -1.0846,-0.008 -2.2766,-0.8335 -2.9497,-2.9998 -0.6612,-2.127 -1.0265,-6.031 -0.9851,-9.013 0.0403,-2.904 0.7205,-5.9385 1.3381,-7.512 0.5839,-1.488 1.7277,-2.4757 2.8375,-2.4757 1.4607,0 2.1238,1.041 2.6733,2.0943 1.1487,2.2019 1.3814,4.6036 1.6636,7.0442 0.5911,5.1084 0.56,9.7729 -0.0685,14.988 -0.5784,4.7987 -1.6976,9.7735 -3.747,14.0321 -1.0595,2.2012 -2.1582,3.9722 -4.2793,5.8652 -0.5879,0.5246 -1.1414,0.8988 -1.6573,1.1699 -0.3934,0.8755 -0.0325,1.9782 0.4161,2.3957 1.7969,-0.8084 3.7773,-2.6311 5.6912,-5.257 3.3956,-4.6597 5.7104,-10.6192 6.9682,-16.2047 0.9087,-4.036 1.1931,-6.6584 1.2377,-10.4755 0.0585,-4.9851 -0.5955,-9.6778 -1.9869,-12.8423 -1.5975,-3.6335 -3.6813,-5.378 -6.42,-5.378 z"
         style="fill:#f7b200;fill-rule:evenodd"
         id="path16"
         inkscape:connector-curvature="0" />
      <path
         d="m 430.1528,523.855 c -2.1996,0 -4.5991,1.5067 -6.0941,4.2647 -1.5072,2.7809 -2.4501,6.2902 -2.5093,10.5824 -0.0501,3.6415 0.6777,7.4046 1.5762,9.6818 1.0484,2.6578 3.0077,4.3869 4.6896,4.4115 1.7827,0.026 3.5128,-1.7077 4.2419,-3.1935 0.1607,-0.3274 0.1388,-1.8985 -0.2351,-2.2596 -0.4323,0.4161 -1.2902,1.0897 -2.4011,1.0813 -1.0846,-0.008 -2.2766,-0.8335 -2.9497,-2.9998 -0.6612,-2.127 -1.0265,-6.031 -0.9851,-9.013 0.0403,-2.904 0.7205,-5.9385 1.3381,-7.512 0.5839,-1.488 1.7277,-2.4757 2.8375,-2.4757 1.4607,0 2.1238,1.041 2.6733,2.0943 1.1487,2.2019 1.3814,4.6036 1.6636,7.0442 0.5911,5.1084 0.56,9.7729 -0.0685,14.988 -0.5784,4.7987 -1.6976,9.7735 -3.747,14.0321 -1.0595,2.2012 -2.1582,3.9722 -4.2793,5.8652 -0.5879,0.5246 -1.1414,0.8988 -1.6573,1.1699 -0.3934,0.8755 -0.0325,1.9782 0.4161,2.3957 1.7969,-0.8084 3.7773,-2.6311 5.6912,-5.257 3.3956,-4.6597 5.7104,-10.6192 6.9682,-16.2047 0.9087,-4.036 1.1931,-6.6584 1.2377,-10.4755 0.0585,-4.9851 -0.5955,-9.6778 -1.9869,-12.8423 -1.5975,-3.6335 -3.6813,-5.378 -6.42,-5.378 z"
         style="fill:#f7b200;fill-rule:evenodd"
         id="path18"
         inkscape:connector-curvature="0" />
      <path
         d="m 408.7147,551.9475 2.3702,-3.9045 c 3.3789,-5.566 5.6101,-10.1975 5.767,-14.0828 0.2703,-6.6833 -2.6603,-10.1052 -5.5584,-10.1052 -2.772,0 -4.4967,3.3959 -5.5427,5.5749 -0.4499,0.9364 -0.8757,1.9791 -1.3416,3.2604 0.0227,0.9845 0.3836,1.4769 1.2705,0.9696 1.7531,-3.496 2.9224,-4.3777 4.4172,-4.2987 3.0929,0.1637 3.2279,4.6867 3.1451,5.9539 -0.1613,2.4631 -1.1966,5.7056 -1.9612,7.4674 -2.0534,4.7313 -5.0906,9.869 -7.4668,13.9109 -0.1613,0.609 -0.1015,0.8977 0.1796,1.2995 2.3662,-0.3228 4.5095,-0.4781 6.8373,-0.526 1.6308,-0.0335 4.7968,0.0455 6.5004,0.526 l 1.9874,-9.0834 c -0.0779,-0.4017 -0.2202,-0.6698 -0.4266,-0.7645 -0.2384,-0.1096 -0.5111,-0.0257 -0.7007,0.2332 -0.3369,1.244 -0.8452,1.8919 -1.3225,2.476 -0.557,0.6815 -1.2491,1.063 -2.7027,1.063 -1.8938,0 -3.2141,0.002 -5.4515,0.0303 z"
         style="fill:#f7b200;fill-rule:evenodd"
         id="path20"
         inkscape:connector-curvature="0" />
    </g>
    <path
       d="m 297.677,521.2708 0,-248.6982 0.3417,-0.8644 29.3381,17.196 10.1022,38.3959 22.6285,21.5139 8.4843,62.9182 27.7959,17.8886 -4.0095,7.5969 1.5043,9.9453 26.178,24.7496 -29.4192,34.3485 -27.7959,3.739 -4.2422,26.2971 -60.9062,-15.0264 z"
       style="fill:#f7b200;fill-rule:evenodd"
       id="path22"
       inkscape:connector-curvature="0" />
    <path
       d="m 297.677,159.4615 c 0.4259,-0.002 0.8547,-0.005 1.2784,-0.006 65.1437,-0.0701 156.273,17.4537 194.5312,45.9691 19.4022,60.8134 20.6505,122.104 14.5456,182.1924 -3.1342,30.8523 -7.5836,61.8077 -15.5539,91.8123 -8.084,30.4333 -19.1885,58.4094 -32.9034,82.0156 -33.1903,57.127 -85.1723,104.5116 -161.5237,129.3177 l -0.3742,-0.1166 0,-130.454 0.4954,-1.0359 15.1116,32.1085 3.4503,-22.3799 4.6142,20.7566 0,85.3874 c 1.9108,-0.7943 3.8025,-1.6025 5.675,-2.4252 l 0,-73.9563 23.1479,-13.7113 23.4466,13.7113 0,48.0867 c 34.1784,-23.5968 59.8674,-53.2395 79.2736,-86.666 19.7459,-34.0123 33.2919,-77.7783 40.381,-124.5036 10.9733,-72.3235 14.8246,-146.0545 -8.7698,-216.1279 -36.5789,-27.2835 -123.7081,-44.0622 -185.9925,-43.9952 -0.2759,3e-4 -0.5562,0.003 -0.8333,0.004 l 0,-15.9839 z"
       style="fill:#f7b200;fill-rule:evenodd"
       id="path24"
       inkscape:connector-curvature="0" />
    <g
       id="Layer1002">
      <path
         d="m 280.2178,225.5304 c -0.2882,-4.8486 -1.3249,-7.8074 -3.5659,-10.0691 -0.9193,-0.9279 -2.0211,-1.4929 -3.3476,-1.4659 -1.8109,0.0366 -3.0933,1.0374 -4.0265,2.3111 -1.0098,1.3789 -1.8329,3.5526 -2.3014,5.3109 -0.909,3.4098 -0.8327,6.5411 -0.7377,8.6784 0.1138,2.5596 0.8395,6.6957 2.5293,9.8522 1.3565,2.5343 3.3291,4.4518 5.8117,4.33 3.9247,-0.1928 5.5315,-4.5751 6.3825,-7.7346 -0.0373,-0.374 -0.669,-1.3337 -0.8502,-0.9914 -1.1507,2.29 -2.3415,4.2019 -4.2991,4.3843 -5.5431,0.5168 -5.9135,-10.2325 -5.9595,-14.0323 l 10.3644,-0.5736 z m -10.3153,-1.5378 c 0.0121,-1.6443 0.3559,-4.1227 1.2038,-5.7147 0.5616,-1.0542 1.3672,-1.7976 2.2466,-1.8212 0.8915,-0.0238 1.6265,0.6075 2.2169,1.6378 0.5792,1.0104 0.9212,2.388 1.106,3.8008 0.1277,0.9778 0.1826,1.051 -0.7991,1.3809 -0.9926,0.3342 -2.2156,0.4812 -3.3019,0.5611 -0.7752,0.0575 -1.5719,0.0886 -2.6723,0.1553 z"
         style="fill:#f8b800;fill-rule:evenodd"
         id="path27"
         inkscape:connector-curvature="0" />
      <path
         d="m 286.3882,257.2738 8.5573,-36.9028 c 0.327,-1.4106 0.6334,-2.4342 1.2513,-3.1069 0.4504,-0.4905 1.2167,-0.7341 1.7932,-0.8547 0.0991,-0.7006 0.0555,-1.3915 -0.0522,-2.078 -1.0173,-0.0482 -2.4464,0.4496 -3.4363,0.4827 -1.122,0.0373 -2.8498,-0.5313 -3.5531,-0.4261 -0.0829,0.7645 -0.0691,1.4179 0.0414,1.9605 0.688,0.2479 1.5433,0.674 1.7875,1.3551 0.3935,1.0988 0.11,2.7827 -0.2276,4.3094 l -2.934,13.2593 -3.4353,-16.058 c -0.4293,-2.008 1.3594,-2.6008 1.9645,-2.7512 0.1219,-0.5466 0.0812,-1.1871 -0.1221,-1.9214 -1.3699,-0.0771 -2.8535,0.6199 -4.1714,0.5967 -1.2383,-0.0219 -2.5902,-0.5855 -3.8634,-0.5435 -0.1946,0.8939 -0.1179,1.5542 0.0819,2.1085 0.6033,0.1077 1.2695,0.4248 1.7122,0.8947 0.5021,0.5326 0.8,1.2984 1.0053,2.207 l 5.085,22.4979 -2.6171,11.6846 c -0.2166,0.9677 -0.5621,1.3203 -0.8992,0.9361 -0.2858,-0.3256 -0.4928,-0.544 -0.9385,-0.564 -1.4651,-0.0666 -1.9237,1.8481 -1.9108,3.2098 0.0246,2.6023 1.1028,3.3122 1.9664,3.4019 1.2969,0.1343 2.3688,-1.3416 2.915,-3.6976 z"
         style="fill:#f8b800;fill-rule:evenodd"
         id="path29"
         inkscape:connector-curvature="0" />
      <path
         d="m 320.0585,214.3386 c -6.5344,-0.321 -8.981,8.7069 -9.3669,15.2598 -0.228,3.8732 0.5343,10.5837 3.8674,13.6012 1.5944,1.4433 3.8469,2.0044 5.8509,1.3017 5.0827,-1.7821 6.7342,-10.2473 6.9589,-14.7942 0.277,-5.6116 -1.0991,-15.0635 -7.3103,-15.3685 z m -5.6485,14.3871 c 0.1194,-2.0278 1.1732,-11.9935 5.1235,-11.9946 4.7261,-0.001 4.1459,11.5032 4.0005,13.9874 -0.1316,2.2444 -1.0008,11.9462 -4.9757,11.7122 -4.5838,-0.2699 -4.2949,-11.2146 -4.1483,-13.705 z"
         style="fill:#f7b200;fill-rule:evenodd"
         id="path31"
         inkscape:connector-curvature="0" />
      <path
         d="m 300.1481,237.2278 c -0.1124,1.3029 -0.2861,2.2334 -0.7622,2.8627 -0.4203,0.555 -1.0886,0.8639 -2.0048,1.1728 -0.0901,0.5999 -0.0764,1.1928 0.0408,1.7791 1.7704,0.1634 3.0763,-0.5869 4.4097,-0.5588 1.5119,0.0319 3.3596,0.6991 4.7121,0.6199 0.1596,-0.4368 0.2718,-1.2187 0.0535,-1.7816 -1.1141,-0.2912 -1.8112,-0.7283 -2.245,-1.2664 -0.5578,-0.6917 -0.6816,-1.551 -0.6988,-2.4831 -0.0285,-1.5287 -0.0346,-3.0621 -0.0248,-4.5911 l 0.1981,-10.9337 c 0.0147,-0.8086 0.3298,-1.7171 0.927,-2.4383 0.3583,-0.4322 0.7106,-0.7898 1.2638,-0.9639 0.2753,-0.0866 0.7259,0.0936 0.9577,0.4813 0.2984,0.4985 0.6005,1.1597 1.5138,1.1763 1.3908,0.0252 1.82,-2.0683 1.8465,-3.3362 0.0257,-1.2329 -0.641,-3.2141 -2.2056,-3.2177 -1.5795,-0.004 -2.6311,1.7891 -4.2301,4.1832 l 0.0789,-4.1427 c 0.004,-0.3635 0.0281,-0.6605 -0.538,-0.6707 -1.1266,1.9318 -2.5698,3.0296 -5.1556,4.0482 -0.2346,0.6294 -0.2295,1.5321 -0.0238,1.899 l 0.6136,0.0345 c 1.4521,0.0816 1.6212,1.9099 1.5879,3.7439 l -0.1842,10.1661 c -0.0437,1.4057 -0.01,2.8184 -0.1305,4.2172 z"
         style="fill:#f7b200;fill-rule:evenodd"
         id="path33"
         inkscape:connector-curvature="0" />
      <path
         d="m 262.401,221.385 c 0.421,-2.8577 0.7016,-3.0395 2.4929,-3.6398 0.2192,-0.4961 0.2021,-1.7216 -0.2481,-2.0935 -1.046,0.0408 -2.0837,0.6951 -3.1621,0.762 -1.0784,0.0669 -1.2511,-0.3212 -3.2394,-0.2695 -0.4629,0.4388 -0.2631,1.6209 0.0261,2.1123 1.8416,0.1343 2.4137,1.1862 2.1057,3.4325 l -1.9964,14.5474 -4.4825,-15.0791 c -0.6043,-2.0661 0.4867,-2.2117 1.6993,-2.6247 0.2512,-0.4986 0.2397,-1.7316 -0.2483,-2.0935 -1.2034,0.024 -2.6748,0.7196 -4.0384,0.8351 -1.2966,0.1098 -2.4643,-0.4096 -3.8715,-0.1642 -0.2229,0.8215 -0.1722,1.3035 0.1979,1.9371 1.5902,0.202 2.7833,2.4072 3.4203,4.373 l 6.7618,21.676 c 0.1969,0.6314 1.1208,0.5228 1.2161,-0.1437 l 3.3666,-23.5674 z"
         style="fill:#f8b800;fill-rule:evenodd"
         id="path35"
         inkscape:connector-curvature="0" />
      <path
         d="m 335.1416,222.6243 c 0.5084,-0.9502 2.1528,-3.1006 3.587,-2.9772 1.3173,0.1134 2.0335,1.3352 2.2574,2.565 0.2295,1.2598 0.055,4.2209 -0.0471,5.4062 l -0.7975,9.2655 c -0.1108,1.2867 -0.2157,2.3048 -0.309,3.0985 -0.0942,0.8014 -0.2646,2.0108 -0.8747,2.5902 -0.3548,0.3371 -0.9412,0.578 -1.3899,0.6552 -0.2622,0.4479 -0.4329,1.5624 -0.0997,2.0014 1.0526,0.2226 2.2674,-0.4495 3.8846,-0.3103 1.7844,0.1536 2.4697,0.8707 3.9005,0.926 0.4032,-0.3764 0.4302,-1.5562 0.2482,-2.0429 -0.9785,-0.3427 -1.8352,-0.5802 -1.9853,-1.8217 -0.0547,-0.4545 -0.0822,-0.8701 -0.0419,-1.6844 0.0396,-0.8029 0.1135,-1.8104 0.225,-3.1057 l 0.9427,-10.9516 c 0.1591,-1.8489 0.1219,-3.4947 -0.0385,-4.9502 -0.1641,-1.4887 -0.9172,-3.6424 -2.4533,-4.704 -0.9702,-0.6711 -1.9695,-0.8804 -3.0837,-0.4517 -1.1196,0.4308 -2.2837,1.4969 -3.5388,3.4457 l 0.2292,-2.136 c 0.063,-0.5873 0.1901,-1.2292 0.2849,-1.9091 -0.0228,-0.1562 -0.0711,-0.2876 -0.1344,-0.4031 -0.0662,-0.1202 -0.374,-0.21 -0.4997,-0.2209 -1.0732,1.2489 -1.6487,1.7292 -2.5465,2.362 -0.7922,0.5585 -1.6782,0.9691 -2.9102,1.3081 -0.2163,0.7164 -0.2411,1.4021 -0.1178,2.086 1.8822,0.6047 1.8452,1.9618 1.6127,4.5176 l -0.9897,10.8673 c -0.1175,1.2916 -0.212,2.2912 -0.309,3.0985 -0.0906,0.7561 -0.1913,1.6179 -0.6379,2.1957 -0.268,0.3467 -0.7115,0.5874 -1.2124,0.6543 l -0.9704,0.1301 c -0.0992,0.1693 -0.171,0.3905 -0.2145,0.6696 -0.0436,0.2796 -0.0576,0.5122 -0.0425,0.7725 0.015,0.261 0.0703,0.445 0.157,0.5592 1.6989,0.167 2.3015,-0.2527 3.8672,-0.079 1.8076,0.2004 2.0963,0.8465 4.0253,0.9214 0.4061,-0.3783 0.4238,-1.4389 0.2389,-1.9351 -1.7015,-0.6204 -1.6858,-1.732 -1.6015,-3.1977 0.046,-0.7955 0.0922,-2.1926 0.2037,-3.4879 l 1.1816,-13.7275 z"
         style="fill:#f7b200;fill-rule:evenodd"
         id="path37"
         inkscape:connector-curvature="0" />
      <path
         d="m 241.4459,228.3962 2.7086,8.7951 c 0.3551,1.1529 0.658,2.3139 0.9585,3.4733 0.2888,1.1137 0.2804,1.7995 -0.003,2.3785 -0.3215,0.6562 -1.102,1.2019 -2.3981,1.5718 -0.1958,0.4789 -0.0367,1.757 0.3728,2.1253 1.9846,-0.3329 3.5959,-1.177 5.5956,-1.4161 1.5333,-0.1835 3.6105,0.0382 5.3501,-0.166 0.0763,-0.1292 0.1186,-0.3091 0.1183,-0.5483 0,-0.4304 -0.1046,-1.0749 -0.3939,-1.4249 -1.1107,-0.2267 -2.0851,-0.562 -2.7755,-1.1744 -1.0096,-0.896 -1.865,-2.5592 -2.3111,-3.9151 l -12.1717,-36.9758 c -0.2711,-0.8245 -1.2791,-0.7093 -1.385,0.4458 l -3.1299,34.0358 c -0.1515,1.6512 -0.4002,4.5432 -0.719,6.5176 -0.3501,2.1692 -0.925,3.4771 -3.0369,4.2834 -0.1614,0.5233 -0.1505,1.4415 0.2624,1.8657 2.217,-0.1534 2.5931,-0.7608 3.8755,-0.8896 1.3715,-0.138 2.9253,0.2759 4.8585,-0.046 0.3847,-0.4559 0.1786,-1.696 -0.1181,-2.1012 -2.072,-0.0213 -3.0281,-0.5946 -3.2888,-2.6289 -0.1276,-0.9959 -0.0562,-2.1193 0.017,-3.2498 l 0.6563,-10.124 6.9573,-0.8322 z m -6.8192,-1.4461 1.1274,-16.3252 4.9034,15.6039 -6.0308,0.7213 z"
         style="fill:#f8b800;fill-rule:evenodd"
         id="path39"
         inkscape:connector-curvature="0" />
    </g>
    <g
       id="Layer1003">
      <path
         d="m 201.2151,235.6125 c -1.1472,-4.7198 -2.6947,-7.4467 -5.3024,-9.2729 -1.0695,-0.7491 -2.4335,-1.1013 -3.7338,-0.8385 -1.7753,0.3588 -2.859,1.5717 -3.5503,2.9913 -0.7481,1.5367 -1.1709,3.8222 -1.3187,5.6359 -0.2871,3.5172 0.3458,6.5848 0.8199,8.6711 0.5679,2.4983 2.019,6.439 4.2437,9.2441 1.7862,2.2519 4.2386,3.6921 6.6659,3.1583 3.4168,-0.7515 4.4523,-5.42 4.7269,-8.6806 -0.1033,-0.3613 -0.8959,-1.1931 -1.0132,-0.824 -0.7243,2.4584 -1.8218,4.3154 -3.6949,4.9119 -2.0073,0.6393 -3.734,-0.972 -5.0337,-3.3014 -1.6711,-2.9956 -2.5488,-6.9458 -2.9655,-9.2822 l 10.1561,-2.413 z m -10.5595,0.1664 c -0.281,-1.6201 -0.2515,-4.0222 0.2992,-5.7395 0.3646,-1.1374 0.8496,-1.9453 1.7104,-2.125 0.873,-0.1825 1.7081,0.3079 2.4732,1.2167 0.9233,1.097 1.6392,2.7428 1.8107,3.5009 0.3165,1.3994 -1.6414,2.1207 -3.3299,2.4932 l -2.9636,0.6537 z"
         style="fill:#f8b800;fill-rule:evenodd"
         id="path42"
         inkscape:connector-curvature="0" />
      <path
         d="m 154.6759,235.6304 c -6.2277,2.0043 -5.333,11.315 -3.3827,17.5829 1.1527,3.7047 4.2327,9.7151 8.416,11.3631 2.0009,0.7881 4.3065,0.5187 5.934,-0.8456 4.1275,-3.4603 2.6871,-11.964 1.2937,-16.2979 -1.72,-5.3487 -6.3414,-13.7078 -12.261,-11.8025 z m -0.2112,15.4548 c -0.6035,-1.9396 -3.1323,-11.6366 0.5637,-13.0308 4.4221,-1.668 7.9368,9.3016 8.6768,11.6775 0.6685,2.1465 3.2771,11.5314 -0.525,12.7144 -4.3844,1.3642 -7.9743,-8.9791 -8.7155,-11.3611 z"
         style="fill:#f8b800;fill-rule:evenodd"
         id="path44"
         inkscape:connector-curvature="0" />
      <path
         d="m 133.1148,264.1713 c 0.6085,1.6911 0.9564,2.7435 1.2528,3.732 0.8308,2.7693 0.1456,3.4549 -1.8906,4.7934 -0.135,0.5223 0.1944,1.5098 0.7134,1.7521 1.7214,-0.4405 3.373,-1.743 5.1769,-2.3871 1.6421,-0.5865 3.3188,-0.6182 5.1398,-1.2098 0.2424,-0.5083 -0.2222,-1.5607 -0.6027,-1.907 -1.7982,0.2039 -3.6399,0.5264 -4.8677,-2.3618 -0.4048,-0.9525 -0.8019,-1.9779 -1.4124,-3.6745 l -3.9935,-11.0993 c 0.6644,-0.2758 1.507,-0.5119 2.2146,-0.4025 0.8652,0.1337 1.6703,1.0358 2.1729,1.657 l 12.2147,15.1017 c 0.2242,0.2769 0.3858,0.3611 0.6791,0.2476 1.1465,-0.4441 1.4923,-1.2683 2.663,-1.6895 1.3497,-0.4856 2.7065,-0.0919 3.6164,-0.8035 -0.0228,-0.415 -0.2498,-1.4454 -0.586,-1.7166 -1.4916,0.3392 -3.809,-0.1242 -4.3962,-0.6951 -0.2693,-0.2617 -1.0558,-0.998 -1.6851,-1.7689 l -11.004,-13.4733 c 0.9332,-1.0576 2.4077,-3.74 2.3542,-7.0189 -0.0577,-3.5549 -1.1861,-6.8405 -3.1522,-9.7717 -2.154,-3.2114 -5.1265,-5.0535 -8.8467,-4.2197 -3.041,0.6815 -3.2204,1.9511 -5.8946,2.7944 -1.6495,0.5204 -4.2148,0.8618 -5.6666,1.365 -0.0554,0.1544 -0.0633,0.3433 -0.0137,0.5787 0.0496,0.2361 0.1131,0.4295 0.2222,0.6559 0.1145,0.2375 0.2452,0.4121 0.3895,0.5432 0.4204,-0.0111 1.0477,-0.0203 1.6656,0.007 2.4415,0.1087 2.8759,1.5974 3.6267,3.5236 0.3617,0.9285 0.8175,2.176 1.372,3.7172 l 8.5382,23.7302 z m -6.6135,-29.3974 c -0.1168,-0.3264 -0.2223,-0.6274 -0.3126,-0.8889 -0.4781,-1.384 -0.5056,-2.7118 1.0723,-3.6149 1.4777,-0.8459 3.1231,-0.7744 4.3924,0.1114 1.4743,1.0289 2.8405,3.6818 3.808,5.9703 0.7001,1.6567 1.3768,3.387 1.7646,5.1466 0.3367,1.5271 0.2932,3.0314 -0.0624,4.4596 -0.4685,1.8817 -1.7346,2.7501 -3.5336,3.3974 -0.2167,0.078 -1.1955,0.4086 -1.7638,0.4154 l -5.3649,-14.9969 z"
         style="fill:#f8b800;fill-rule:evenodd"
         id="path46"
         inkscape:connector-curvature="0" />
      <path
         d="m 178.4966,220.5176 c -0.2498,-0.948 -0.5134,-1.9729 -0.803,-3.0944 -0.5881,-2.281 -1.1718,-4.3951 -1.6077,-6.9091 -0.0389,-0.2242 -0.9234,-0.6926 -1.0234,0.052 -0.3382,2.5126 -2.2939,3.9997 -3.4377,4.9518 -0.2701,0.2246 0.035,1.6586 0.3283,1.6713 1.7235,0.0765 2.0559,0.5013 2.2404,0.9406 0.1424,0.3393 0.3527,0.9482 0.5346,1.5956 0.179,0.6364 0.4246,1.5153 0.702,2.5679 l 2.3264,8.8263 c -1.1232,-0.8987 -2.6089,-1.2118 -3.7976,-0.9515 -1.8975,0.4152 -3.2839,1.7875 -4.1461,3.8091 -0.7607,1.7837 -1.1098,4.0909 -1.1043,6.4542 0.005,1.9438 0.387,4.3578 0.9995,6.6815 0.6482,2.459 2.6524,7.671 5.5653,10.6117 1.6336,1.6493 3.7175,2.4677 5.6163,1.9721 1.8073,-0.4717 3.1292,-2.8359 3.4587,-4.4665 0.2915,1.1589 0.4102,2.1213 0.5586,3.1969 0.119,0.2535 0.636,0.3268 0.9157,-0.087 0.7259,-1.0743 2.8594,-2.8391 3.9947,-3.3808 0.2741,-0.5116 -0.0516,-1.5523 -0.4671,-1.9161 -1.676,0.2796 -2.1422,-0.1931 -2.6955,-1.9343 -0.3607,-1.1359 -0.8479,-2.8568 -1.3617,-4.8061 l -6.7964,-25.7852 z m 4.7901,30.9447 c 0.4132,1.5676 -0.5368,4.9897 -2.3489,5.5278 -3.9123,1.1619 -6.8702,-8.7652 -7.5345,-11.2856 -0.8055,-3.0558 -1.9527,-8.375 -0.8224,-11.4495 0.3726,-1.0142 1.0047,-1.7841 1.9803,-2.0413 1.6858,-0.4443 2.6227,0.4953 3.4047,1.5714 0.8711,1.198 1.4231,2.8894 1.794,4.2968 l 3.5268,13.3804 z"
         style="fill:#f8b800;fill-rule:evenodd"
         id="path48"
         inkscape:connector-curvature="0" />
      <path
         d="m 219.7629,249.9434 -0.0548,-8.3383 c -0.2152,-0.4922 -0.7601,-0.8441 -1.0519,-0.1783 -0.0708,1.235 -0.3411,2.8483 -0.7884,3.9924 -0.2908,0.7434 -0.7995,1.2318 -1.306,1.5728 -0.5024,0.338 -1.1106,0.5049 -1.7575,0.6205 l -3.6905,0.6592 4.0294,-21.867 c 0.2161,-1.4154 0.4365,-2.6759 0.653,-3.7855 0.214,-0.5665 -0.1434,-0.6694 -0.4252,-0.8091 -0.2695,0.1228 -0.5949,0.231 -0.9734,0.3365 -0.3722,0.1038 -0.8179,0.2099 -1.3375,0.3041 l -6.4627,1.1717 c -0.6187,0.1122 -1.4955,0.1909 -1.9149,0.1116 -0.3121,-0.0589 -0.6528,-0.0335 -0.6534,0.3332 l -0.017,7.938 c 0.1564,0.3102 0.9153,0.3136 1.1334,0.0228 0.0484,-0.4642 0.0519,-0.7024 0.1105,-1.2711 0.2349,-2.2789 0.6733,-4.6589 3.64,-5.1632 l 2.8112,-0.4776 -4.9024,26.2168 c 0.007,0.2201 0.0479,0.4096 0.1359,0.566 0.088,0.1564 0.1868,0.2614 0.3025,0.3144 2.2001,-0.7255 4.2181,-1.2831 6.3855,-1.6554 2.1009,-0.3608 4.1082,-0.5801 6.1342,-0.6145 z"
         style="fill:#f8b800;fill-rule:evenodd"
         id="path50"
         inkscape:connector-curvature="0" />
    </g>
    <g
       id="Layer1004">
      <path
         d="m 384.0061,222.0334 c -6.4307,-1.2034 -10.078,7.4097 -11.3481,13.85 -0.7508,3.8065 -0.9048,10.5584 1.9888,13.9997 1.3841,1.646 3.5398,2.5071 5.6206,2.0825 5.2773,-1.077 8.0605,-9.2404 8.8992,-13.7149 1.0348,-5.5223 0.952,-15.0735 -5.1605,-16.2173 z m -7.5458,13.4891 c 0.393,-1.9929 2.7874,-11.724 6.7014,-11.1898 4.6827,0.6393 2.5491,11.9589 2.0684,14.4005 -0.4345,2.2058 -2.6101,11.7004 -6.5167,10.93 -4.505,-0.8885 -2.7358,-11.6931 -2.2531,-14.1407 z"
         style="fill:#f7b200;fill-rule:evenodd"
         id="path53"
         inkscape:connector-curvature="0" />
      <path
         d="m 402.3124,225.9215 c -6.3694,-1.494 -10.4038,6.9447 -11.9649,13.3207 -0.9228,3.7685 -1.383,10.5065 1.3514,14.0756 1.308,1.7071 3.4224,2.6651 5.5203,2.3354 5.3207,-0.8365 8.4716,-8.8651 9.5125,-13.2969 1.2843,-5.4697 1.6351,-15.0148 -4.4193,-16.4348 z m -8.1502,13.1327 c 0.4831,-1.973 3.3166,-11.5854 7.2023,-10.8741 4.6489,0.8511 2.0038,12.0622 1.4128,14.4795 -0.5341,2.1838 -3.1384,11.5699 -7.006,10.623 -4.46,-1.092 -2.2024,-11.8052 -1.6091,-14.2284 z"
         style="fill:#f7b200;fill-rule:evenodd"
         id="path55"
         inkscape:connector-curvature="0" />
      <path
         d="m 359.3856,201.6088 c -0.3714,0.4774 -0.5138,1.452 -0.4309,1.9453 1.8313,0.8049 3.0217,1.4349 3.061,3.423 0.0108,0.5552 0.005,0.9922 -0.102,1.9227 -0.1067,0.9308 -0.2709,2.1216 -0.4878,3.5433 l -3.7977,24.8912 c -0.2703,1.772 -0.5112,3.1712 -0.7231,4.1778 -0.3108,1.4761 -0.816,2.2006 -1.4926,2.6349 -0.4626,0.2969 -0.9559,0.4967 -1.729,0.5608 l -0.8826,0.0735 c -0.3075,0.4117 -0.5503,1.4728 -0.2144,1.9239 1.5967,0.2348 3.5977,0.0274 5.2095,0.2721 1.9462,0.2953 3.4636,1.0586 5.5089,1.3632 0.455,-0.3296 0.5396,-1.4164 0.369,-1.9003 -0.8987,-0.3665 -1.7562,-0.9399 -2.2891,-1.4128 -1.0963,-0.9727 -0.7141,-2.2796 -0.5539,-3.6097 0.11,-0.913 0.2673,-2.0976 0.4844,-3.5208 l 1.8883,-12.3767 2.6793,0.3968 c 0.8325,0.1235 0.8819,0.1529 1.3988,0.2829 0.7503,0.1889 1.2245,0.7189 1.5035,1.5021 0.6143,1.7244 0.2959,4.6613 0.219,6.0352 0.0599,0.1708 0.2219,0.3094 0.3664,0.3794 0.1414,0.0684 0.3066,0.0835 0.468,0.0482 0.1568,-0.0342 0.2921,-0.1403 0.3905,-0.3102 0.4619,-2.8319 0.5312,-5.4618 0.9068,-8.1159 0.3878,-2.7389 1.1239,-5.2675 1.4733,-8.2017 -0.0467,-0.1689 -0.1409,-0.2873 -0.2871,-0.3675 -0.1462,-0.0801 -0.3118,-0.0966 -0.4646,-0.0708 -0.1527,0.0255 -0.3012,0.1159 -0.4093,0.2611 -0.2722,0.9915 -0.5532,2.7575 -1.12,4.1878 -0.4696,1.1853 -1.1359,2.1409 -2.1569,2.2352 -0.7365,0.0681 -1.4029,-0.0808 -2.2584,-0.2155 l -2.3548,-0.3704 2.0305,-13.3087 c 0.094,-0.6161 0.305,-2.1066 0.7673,-3.0934 0.3161,-0.6744 0.7884,-1.0638 1.4743,-0.9638 l 1.8233,0.2655 c 2.363,0.344 3.7177,0.6202 4.9298,2.8371 0.7922,1.4486 0.9777,2.8049 1.0235,5.7426 0.3305,0.4504 1.1868,0.4507 1.4401,-0.0577 l 0.0728,-9.9515 c 0.004,-0.5087 -0.0128,-0.4025 -0.5396,-0.4046 -3.7519,-0.0136 -7.7728,-0.5411 -11.5716,-1.2808 -1.9211,-0.3742 -3.8777,-0.9273 -5.6229,-1.3728 z"
         style="fill:#f7b200;fill-rule:evenodd"
         id="path57"
         inkscape:connector-curvature="0" />
      <path
         d="m 421.5088,236.0953 1.016,-3.4297 -5.287,-1.5125 1.8,-6.2426 c -0.073,-0.4245 -0.283,-0.5639 -0.7532,-0.3683 -1.272,2.0401 -2.9538,4.4467 -7.0515,7.3139 -0.4654,0.3255 -0.3842,0.8876 -0.1541,1.3117 l 2.0106,0.5943 -4.3039,15.0441 c -0.5813,2.032 -1.3993,6.1819 -0.2215,8.6789 0.3758,0.7972 0.904,1.5201 1.7851,1.7983 1.0224,0.3226 1.9466,0.1717 2.8342,-0.3015 0.9643,-0.5143 1.8313,-1.3002 2.441,-2.2058 0.4726,-0.7019 0.2254,-1.636 -0.162,-1.3036 -1.0496,0.7778 -1.7109,1.2223 -2.9859,0.7562 -1.6786,-0.6138 -0.8373,-4.5871 -0.5509,-5.8745 0.2221,-0.9987 0.4836,-2.0219 0.8,-3.1279 l 3.613,-12.6295 5.1701,1.4985 z"
         style="fill:#f7b200;fill-rule:evenodd"
         id="path59"
         inkscape:connector-curvature="0" />
      <path
         d="m 431.3838,225.7508 c 0.3169,-1.0174 0.6719,-2.1171 1.0459,-3.3141 0.3739,-1.1969 0.7606,-2.3757 1.1464,-3.5491 0.3859,-1.1734 0.8233,-2.607 1.2168,-3.5054 0.114,-0.2606 -0.3888,-0.7388 -0.7215,-0.4366 -1.6161,1.468 -3.3086,2.2211 -6.0181,2.5713 -0.3458,0.0447 -0.7099,1.2946 -0.4859,1.429 0.4769,0.2865 1.5013,1.2607 1.3887,2.2948 -0.043,0.3955 -0.1915,0.9596 -0.3957,1.665 -0.2004,0.6936 -0.4818,1.6352 -0.8354,2.7707 l -8.923,28.6489 c -0.2024,0.6499 -0.4302,1.3421 -0.6598,2.0521 -0.2333,0.7207 -0.4644,1.4028 -0.6781,2.046 -0.2139,0.6432 -0.396,1.1833 -0.5452,1.6186 -0.1489,0.4353 -0.2375,0.6871 -0.26,0.7685 -0.0325,0.1168 -0.0183,0.236 0.03,0.3647 0.0484,0.1284 0.2166,0.238 0.2958,0.2695 0.0539,0.0216 0.1069,0.0262 0.147,0.033 0.0446,0.008 0.088,0.002 0.1362,-0.0207 0.1916,-0.2195 1.1658,-1.4856 1.3785,-1.6673 0.7584,-0.6482 1.6107,-0.1705 2.0005,0.2513 0.5725,0.6201 0.9786,1.4161 1.6969,2.1394 0.4604,0.4634 1.1237,0.9329 1.7993,1.1921 1.9828,0.7603 3.8151,-0.2581 5.8056,-1.7633 2.9811,-2.2549 5.3914,-6.9128 6.4792,-10.3929 1.0043,-3.2142 1.6013,-6.4559 1.2208,-9.8257 -0.331,-2.9333 -1.6716,-6.0757 -3.9242,-6.9825 -2.3975,-0.9652 -4.6918,0.2015 -5.4875,1.4462 l 3.1468,-10.1035 z m -5.0989,16.3713 c 0.2449,-0.7863 0.8128,-2.7426 1.0276,-3.1894 0.4511,-0.9371 2.7674,-3.108 4.6293,-2.4017 2.406,0.9126 2.5139,4.5613 1.9047,8.5487 -0.4165,2.7274 -1.5312,5.6877 -1.9198,6.9427 -0.3856,1.2454 -1.3432,3.8732 -2.6662,6.01 -1.2822,2.0716 -2.9746,3.7434 -4.689,3.1275 -2.2317,-0.8016 -2.6582,-5.0021 -2.1944,-6.4913 l 3.9078,-12.5465 z"
         style="fill:#f7b200;fill-rule:evenodd"
         id="path61"
         inkscape:connector-curvature="0" />
      <path
         d="m 451.5788,249.9827 c 0.7691,-1.9879 1.1153,-3.7045 1.2299,-5.0802 0.1984,-2.202 -0.3397,-4.2871 -2.4734,-5.0366 -1.5628,-0.549 -3.775,0.373 -5.2626,1.2417 -0.6083,0.3585 -1.1371,0.7329 -1.5907,1.1347 -0.6324,0.5687 -1.1489,1.0896 -1.5485,1.5755 -0.3937,0.4881 -0.8218,1.025 -0.9172,1.4561 -0.3982,1.8045 0.1465,2.8006 0.4626,2.717 0.3188,-0.0129 1.0928,-0.0776 1.4077,-0.1691 0.4674,-0.1497 1.313,-1.3929 1.4112,-1.5328 0.2508,-0.347 0.4556,-0.8523 0.722,-1.4768 0.1361,-0.3009 0.192,-0.6326 0.3584,-0.9066 0.3669,-0.6041 0.8849,-1.0754 1.231,-1.3442 0.6453,-0.5013 1.2193,-0.6448 1.7764,-0.4826 1.4625,0.4258 1.0619,2.9247 0.7938,4.0741 -0.1186,0.5085 -0.3296,1.1718 -0.5643,1.8105 l -1.726,4.6915 c -2.0232,0.2186 -4.8525,1.045 -6.1391,1.6178 -2.6358,1.1734 -4.1732,2.5642 -5.165,5.3518 -0.4224,1.1605 -0.6785,2.2785 -0.7832,3.3742 -0.1045,1.0958 -0.009,2.0487 0.2923,2.864 0.2985,0.8071 0.9306,1.3461 1.7351,1.5733 2.0421,0.576 4.0871,-0.4903 5.3095,-1.787 0.008,1.3741 0.3274,2.495 0.6361,3.0205 0.4074,0.6933 1.0931,1.1263 1.8535,1.127 1.4788,0.001 3.0115,-1.4804 3.6716,-2.3072 0.1323,-0.2492 0.3343,-1.2338 0.0853,-1.7488 -0.7509,0.4963 -1.1176,0.8172 -1.6068,0.8925 -0.4891,0.0753 -0.8414,-0.2657 -0.7733,-1.3137 0.0722,-1.1109 0.6821,-2.8139 1.4546,-4.7747 l 4.1191,-10.5619 z m -8.5332,13.0353 c -0.1574,0.6201 -2.4095,2.3211 -3.6666,1.8678 -1.5938,-0.6273 -0.488,-3.9089 -0.006,-5.2347 0.3575,-0.9651 0.7257,-1.7254 1.1246,-2.2452 1.6109,-2.0982 3.9954,-2.508 5.676,-2.9521 l -3.1285,8.5642 z"
         style="fill:#f7b200;fill-rule:evenodd"
         id="path63"
         inkscape:connector-curvature="0" />
      <path
         d="m 461.2695,267.0619 c -0.4591,1.1288 -0.8404,2.0387 -1.1538,2.7361 -0.9398,2.0915 -1.3582,2.5092 -3.3642,2.1 -0.3522,0.3311 -0.8318,1.3292 -0.6656,1.8105 1.067,0.4724 2.7357,0.5386 4.0323,1.066 1.2964,0.5273 2.357,1.5714 3.4872,1.9923 0.4547,-0.2285 0.8086,-1.2782 0.787,-1.761 -1.7737,-1.1063 -1.7382,-1.9282 -1.0235,-3.8846 0.2625,-0.7182 0.6241,-1.636 1.0832,-2.7648 l 11.0943,-27.277 c 0.3674,-0.9032 0.7697,-1.8763 1.2082,-2.9411 0.8556,-2.0773 1.8507,-4.3205 2.7473,-6.3796 0.0321,-0.1828 -0.0201,-0.8072 -0.3648,-0.6059 -0.7885,0.4602 -1.3069,0.7426 -2.0554,1.0098 -1.3427,0.4797 -2.6333,0.4564 -4.1946,0.8269 -0.2915,0.0691 -0.7472,1.4638 -0.6169,1.5168 1.0429,0.422 1.5349,1.0187 1.2466,2.1251 -0.0986,0.3781 -0.2587,0.8755 -0.4966,1.4965 -0.242,0.6308 -0.5938,1.5032 -1.007,2.5189 l -10.7437,26.4151 z"
         style="fill:#f7b200;fill-rule:evenodd"
         id="path65"
         inkscape:connector-curvature="0" />
      <path
         d="m 452.435,263.5052 c -0.4343,1.1367 -0.7983,2.0567 -1.0962,2.7596 -0.8946,2.1106 -1.3054,2.5371 -3.3195,2.17 -0.3451,0.3384 -0.8038,1.3463 -0.6275,1.824 1.0767,0.45 2.7464,0.4813 4.0538,0.9814 1.3071,0.5 2.3893,1.5216 3.528,1.9188 0.4499,-0.2379 0.7818,-1.2948 0.75,-1.7771 -1.7965,-1.0689 -1.7788,-1.8916 -1.1046,-3.8624 0.2472,-0.7227 0.5897,-1.6486 1.0251,-2.7868 l 10.4596,-27.3534 c 0.3483,-0.9107 0.7306,-1.8924 1.1463,-2.9657 0.8114,-2.0945 1.7599,-4.3584 2.6131,-6.4358 0.0283,-0.1834 -0.0373,-0.8062 -0.3774,-0.5981 -0.7781,0.4765 -1.3566,0.9178 -2.0979,1.2001 -1.3311,0.5069 -2.6023,0.4654 -4.1541,0.8677 -0.2886,0.0746 -0.7558,1.5796 -0.6257,1.6294 1.0509,0.4015 1.5565,0.9868 1.2908,2.0985 -0.0906,0.3793 -0.2397,0.8817 -0.4652,1.5065 -0.2289,0.6347 -0.5632,1.5168 -0.9539,2.5395 l -10.0447,26.2838 z"
         style="fill:#f7b200;fill-rule:evenodd"
         id="path67"
         inkscape:connector-curvature="0" />
    </g>
  </g>
</svg>
